<?xml version="1.0" standalone="no"?>
<!DOCTYPE svg PUBLIC "-//W3C//DTD SVG 20010904//EN"
 "http://www.w3.org/TR/2001/REC-SVG-20010904/DTD/svg10.dtd">
<svg version="1.0" xmlns="http://www.w3.org/2000/svg"
 width="296.000000pt" height="170.000000pt" viewBox="0 0 296.000000 170.000000"
 preserveAspectRatio="xMidYMid meet">
<metadata>
Created by potrace 1.10, written by Peter Selinger 2001-2011
</metadata>
<g transform="translate(0.000000,170.000000) scale(0.100000,-0.100000)"
fill="#000000" stroke="none">
<path d="M2013 1663 c-23 -5 -49 -30 -40 -39 3 -4 20 4 36 16 21 15 29 17 25
6 -3 -8 -20 -22 -39 -30 -18 -9 -35 -26 -39 -38 -7 -26 -8 -334 -2 -327 3 3 8
31 11 64 4 33 12 63 18 67 9 6 9 10 1 16 -18 11 -12 121 6 132 13 8 13 10 -2
10 -18 0 -14 36 5 43 9 3 12 -53 12 -214 0 -121 2 -219 6 -219 7 0 4 -501 -5
-775 -3 -116 -6 -216 -6 -222 0 -7 -5 -13 -11 -13 -7 0 -10 12 -7 30 3 17 1
30 -3 30 -6 0 -10 265 -11 810 l0 35 -7 -30 c-9 -40 -14 -812 -5 -870 5 -35
10 -45 21 -41 18 7 59 -19 44 -28 -6 -4 -20 -2 -31 4 -29 16 -25 -5 6 -29 26
-20 37 -21 410 -21 210 0 390 3 399 6 43 17 44 30 46 665 2 627 3 624 -38 670
-8 9 -75 34 -149 55 -127 36 -136 40 -148 69 -20 47 -43 60 -156 95 -58 17
-139 43 -180 56 -70 22 -115 27 -167 17z m194 -52 c220 -63 273 -84 293 -120
7 -14 0 -16 -51 -16 -47 0 -63 -4 -80 -22 l-22 -22 21 6 c13 3 22 1 22 -6 0
-6 -11 -13 -25 -17 -18 -4 -26 -15 -31 -39 -3 -19 -4 -40 -1 -47 3 -7 6 -1 6
15 1 15 3 27 5 27 2 0 11 3 20 6 14 5 16 -14 19 -153 l3 -158 2 166 c1 91 7
180 13 197 16 46 47 48 163 12 54 -16 106 -30 115 -30 12 0 13 -2 3 -9 -9 -5
3 -10 36 -15 30 -4 56 -14 67 -26 10 -11 21 -18 25 -15 11 7 13 -18 15 -197 2
-103 -1 -168 -7 -168 -5 0 -6 -5 -3 -11 9 -14 7 -744 -1 -822 -4 -32 -13 -65
-21 -73 -18 -17 -63 -19 -63 -1 0 9 -2 9 -8 0 -5 -8 -54 -12 -155 -14 -140 -2
-170 2 -153 18 4 4 11 1 16 -7 5 -8 12 -11 15 -8 10 10 -4 28 -21 28 -8 0 -14
7 -14 16 0 8 -4 12 -10 9 -6 -3 -10 4 -10 17 0 16 -3 19 -8 10 -6 -9 -12 -6
-20 13 -8 18 -8 25 -1 25 8 0 8 4 2 13 -15 18 -15 21 -20 323 -4 281 -4 282
-26 288 -66 18 -145 -2 -183 -46 -35 -41 -38 -51 -10 -33 14 10 26 21 26 26 0
5 7 6 16 2 13 -5 15 -23 12 -114 -2 -60 0 -109 5 -109 4 0 7 54 7 119 0 95 3
123 16 135 18 18 34 21 34 5 0 -5 4 -7 10 -4 5 3 7 0 4 -9 -4 -11 1 -15 20
-13 l27 2 0 -165 c1 -177 6 -243 19 -235 4 3 11 -56 15 -130 l7 -135 28 0 c32
0 41 -7 33 -26 -4 -10 -10 -11 -25 -3 -15 8 -19 8 -14 0 5 -8 -36 -11 -143
-11 l-150 0 -20 26 c-20 25 -21 39 -21 236 0 115 5 239 10 276 11 70 19 462
10 462 -9 0 -10 23 -16 292 -6 253 -6 256 16 278 12 12 27 20 33 17 7 -2 62
-19 124 -36z"/>
<path d="M2210 1560 c0 -22 21 -35 86 -55 39 -11 46 -11 51 1 10 26 -5 41 -53
58 -64 21 -84 21 -84 -4z"/>
<path d="M2449 1408 c-6 -16 -9 -31 -5 -35 3 -3 6 0 6 7 0 8 9 23 20 35 16 17
17 22 6 22 -8 0 -20 -13 -27 -29z"/>
<path d="M2533 1419 c16 -9 33 -15 58 -18 3 -1 15 -10 27 -21 25 -24 29 -60 7
-60 -8 0 -15 5 -15 10 0 6 -5 10 -10 10 -6 0 -10 -6 -9 -12 3 -24 -1 -38 -10
-35 -5 1 -9 -1 -10 -5 -1 -8 6 -8 26 -1 7 3 11 9 8 13 -3 5 4 6 15 3 13 -4 22
1 27 13 6 17 8 16 14 -6 7 -24 7 -24 8 -2 1 29 -25 82 -42 83 -6 0 -3 4 8 8
16 6 12 9 -20 15 -105 18 -101 18 -82 5z"/>
<path d="M2473 1393 c-7 -15 -13 -34 -13 -42 0 -14 -1 -14 -10 -1 -7 10 -10
-15 -10 -80 l0 -95 17 33 c14 29 14 35 2 43 -11 7 -10 10 8 15 20 5 20 8 8 21
-18 18 -20 46 -2 40 6 -2 11 -11 11 -20 -1 -10 4 -13 14 -10 9 4 13 2 9 -4
-12 -19 25 -24 39 -6 15 20 19 83 5 83 -5 0 -7 -9 -4 -20 3 -11 1 -20 -5 -20
-5 0 -15 20 -21 45 -13 51 -30 57 -48 18z m47 -55 c0 -5 -7 -8 -15 -8 -15 0
-20 21 -8 33 7 7 23 -11 23 -25z"/>
<path d="M2414 1305 c0 -49 1 -71 3 -48 2 23 2 64 0 90 -2 26 -3 8 -3 -42z"/>
<path d="M2327 1303 c-4 -3 -7 -24 -7 -45 0 -21 -3 -38 -7 -38 -8 0 -9 -33
-14 -253 l-1 -98 -30 7 c-21 4 -28 3 -24 -5 4 -6 2 -11 -3 -11 -6 0 -11 5 -11
10 0 6 -6 10 -14 10 -15 0 -25 28 -27 75 -1 21 -3 24 -6 10 -3 -11 -13 -25
-22 -31 -14 -11 -11 -16 22 -48 36 -34 88 -56 135 -56 l22 0 0 240 c0 132 -1
240 -3 240 -2 0 -7 -3 -10 -7z"/>
<path d="M2605 1270 c-23 -25 -13 -83 17 -105 20 -13 24 -13 40 2 23 21 23 72
-1 101 -23 27 -33 28 -56 2z m41 -82 c-11 -18 -12 -18 -28 3 -22 26 -23 39 -2
39 9 0 13 5 9 13 -4 6 2 1 13 -12 16 -20 18 -28 8 -43z"/>
<path d="M2480 1251 c0 -5 14 -8 31 -6 45 6 49 15 6 15 -20 0 -37 -4 -37 -9z"/>
<path d="M2489 1225 c-1 -3 -3 -9 -4 -15 -1 -5 -3 -15 -4 -21 0 -5 -5 -7 -11
-4 -5 3 -10 -1 -10 -10 0 -10 -5 -13 -11 -9 -8 5 -10 -3 -5 -27 4 -19 8 -44 9
-56 1 -11 4 -20 7 -18 3 2 28 -2 55 -9 115 -30 123 -30 140 3 8 17 15 43 15
60 0 24 -3 28 -20 24 -26 -7 -57 20 -65 58 -4 16 -11 26 -16 23 -6 -4 -6 -11
2 -20 6 -8 8 -14 4 -14 -4 0 -2 -7 5 -15 7 -8 9 -15 4 -15 -5 0 -2 -5 6 -10
10 -6 15 -25 15 -55 0 -41 -2 -45 -20 -40 -11 4 -26 7 -32 7 -10 1 -10 4 0 16
10 13 9 14 -10 4 -12 -7 -28 -12 -36 -12 -17 0 -52 49 -41 58 4 4 9 1 11 -5 3
-7 12 -13 21 -13 15 0 15 2 2 10 -13 9 -13 10 0 10 12 0 12 2 2 9 -22 13 -10
46 16 47 21 1 23 -2 18 -34 -2 -20 -12 -42 -22 -49 -13 -10 -14 -13 -3 -13 51
1 68 82 26 125 -15 14 -46 21 -48 10z m171 -124 c0 -10 -8 -25 -17 -32 -15
-12 -16 -12 -10 3 3 10 2 20 -3 23 -17 10 -11 25 10 25 13 0 20 -7 20 -19z"/>
<path d="M2408 1203 c-2 -5 -1 -26 3 -48 l6 -40 2 48 c1 44 -3 57 -11 40z"/>
<path d="M2383 1020 c0 -25 2 -35 4 -22 2 12 2 32 0 45 -2 12 -4 2 -4 -23z"/>
<path d="M2398 838 c-2 -51 -1 -232 2 -403 4 -258 6 -295 14 -222 7 77 -1 706
-9 715 -2 2 -5 -38 -7 -90z"/>
<path d="M2127 890 c3 -11 12 -20 20 -20 8 0 11 -5 8 -11 -4 -6 1 -17 11 -24
18 -13 18 -14 -4 -8 -16 4 -22 2 -20 -8 2 -7 -4 -13 -12 -14 -8 0 -15 -7 -15
-15 -1 -8 -7 -14 -14 -12 -7 1 -10 -2 -7 -7 4 -5 2 -12 -4 -16 -5 -3 -10 -10
-10 -15 0 -5 15 5 33 22 17 16 52 39 76 50 l43 20 -28 18 c-16 9 -38 27 -48
39 -24 26 -36 27 -29 1z"/>
<path d="M2590 776 c-13 -34 -13 -40 1 -86 8 -28 18 -39 35 -43 13 -2 24 -4
24 -3 -3 21 -40 149 -44 153 -3 3 -10 -6 -16 -21z"/>
<path d="M2670 728 c0 -10 4 -18 9 -18 5 0 11 -8 14 -17 2 -10 4 -2 3 18 -1
36 -26 53 -26 17z"/>
<path d="M2383 620 c0 -25 2 -35 4 -22 2 12 2 32 0 45 -2 12 -4 2 -4 -23z"/>
<path d="M1701 1478 c0 -18 4 -42 9 -53 6 -15 9 -8 9 27 1 26 -3 50 -9 53 -6
4 -10 -7 -9 -27z"/>
<path d="M1650 1478 c-14 -11 -18 -18 -10 -14 8 3 23 9 33 12 9 4 17 10 17 15
0 14 -13 10 -40 -13z"/>
<path d="M1725 1383 c6 -5 37 -16 70 -23 33 -7 66 -17 73 -23 9 -7 11 -6 6 6
-7 18 -47 33 -114 43 -29 4 -41 3 -35 -3z"/>
<path d="M1730 1358 c0 -4 7 -85 15 -180 41 -476 67 -1085 47 -1097 -13 -8
-181 11 -252 28 -57 13 -60 13 -60 -1 0 -6 -9 -21 -20 -33 l-21 -22 166 -6
c143 -6 169 -5 190 9 14 9 25 23 25 30 0 17 19 18 55 4 24 -9 26 -8 20 7 -9
22 -7 245 5 687 5 187 7 342 5 346 -2 3 -5 43 -6 88 -1 47 -7 86 -13 91 -8 7
-12 3 -13 -12 -1 -12 -7 -23 -12 -25 -7 -2 -5 -12 3 -25 10 -16 14 -65 14
-180 1 -87 -2 -156 -6 -153 -4 2 -7 -44 -8 -102 -2 -187 -16 -472 -24 -472 -8
0 -17 100 -19 225 -1 44 -7 95 -13 114 -8 25 -7 35 2 41 7 4 9 13 5 19 -6 10
-20 259 -29 492 -1 36 -8 72 -14 80 -7 8 -19 23 -27 34 -8 11 -15 17 -15 13z"/>
<path d="M1983 1235 c0 -27 2 -38 4 -22 2 15 2 37 0 50 -2 12 -4 0 -4 -28z"/>
<path d="M1390 1240 c-4 -15 -8 -90 -5 -90 14 0 23 41 15 66 -4 16 -9 27 -10
24z"/>
<path d="M640 1219 c-19 -4 -81 -13 -138 -20 -76 -8 -106 -16 -115 -29 -6 -9
-24 -20 -38 -23 -14 -4 -31 -18 -37 -32 -6 -14 -18 -25 -26 -25 -9 0 -21 -10
-27 -22 -6 -13 -21 -34 -33 -47 -20 -23 -20 -24 -1 -16 55 22 230 32 282 17
19 -6 71 -72 102 -129 10 -19 8 -26 -10 -44 -16 -16 -23 -35 -23 -65 -1 -23 2
-40 7 -37 9 5 9 -31 0 -41 -12 -12 -15 -284 -3 -306 15 -28 44 -27 35 1 -4 12
-7 60 -6 108 0 58 -3 81 -9 71 -6 -9 -10 -10 -10 -3 0 6 4 14 9 17 11 7 9 25
-3 45 -7 11 -4 13 15 6 13 -4 34 -8 46 -9 17 -1 21 -7 20 -28 -1 -19 -8 -28
-19 -28 -25 0 -38 -31 -38 -92 0 -76 8 -98 35 -98 31 0 36 27 35 159 -1 60 3
119 10 136 11 30 9 52 -12 102 -6 15 -12 31 -12 35 -1 3 -5 10 -10 15 -5 4 -6
3 -3 -3 7 -12 -6 -20 -58 -35 -29 -8 -30 -8 -7 8 12 8 22 22 22 29 0 8 6 13
13 11 25 -5 -7 87 -56 156 -9 13 -9 19 0 25 6 4 17 20 22 36 12 31 31 30 47
-3 6 -12 21 -29 33 -37 11 -8 21 -26 21 -38 0 -13 6 -29 14 -35 14 -12 25 -62
29 -131 1 -19 8 -50 16 -68 11 -26 11 -38 2 -59 -10 -22 -9 -29 10 -49 24 -25
25 -41 13 -157 -4 -31 -10 -60 -15 -63 -5 -3 -9 -23 -9 -44 0 -21 -4 -42 -10
-45 -5 -3 -10 -19 -10 -34 0 -16 -9 -40 -20 -54 -11 -14 -20 -35 -20 -47 0
-13 -8 -24 -20 -27 -10 -3 -22 -14 -25 -24 -9 -26 -42 -24 -51 4 -3 12 -13 30
-22 39 -13 16 -13 20 4 45 29 44 43 71 53 109 8 31 8 35 -7 32 -9 -3 -16 -10
-14 -17 4 -17 -51 -111 -83 -141 -24 -23 -31 -24 -146 -22 -84 1 -129 6 -149
17 -39 20 -62 19 -29 -2 15 -9 34 -31 43 -50 9 -18 22 -33 31 -33 8 0 21 -13
30 -30 11 -21 23 -30 39 -30 13 0 26 -6 29 -13 8 -22 105 -38 277 -44 129 -5
171 -3 190 7 14 8 34 14 44 15 11 1 26 12 34 23 8 12 21 22 28 22 18 0 17 10
-1 34 -11 14 -15 47 -15 119 l0 100 45 -5 c49 -6 58 1 23 17 -35 15 -58 69
-47 108 10 36 32 56 72 64 17 3 27 12 28 24 1 11 2 25 3 32 1 6 -9 22 -21 34
-32 30 -34 74 -6 106 18 19 63 23 80 6 13 -13 8 67 -9 122 -6 20 -8 43 -6 50
3 8 0 25 -7 39 -7 14 -15 40 -18 59 -3 18 -12 40 -20 49 -22 26 -27 50 -17 77
10 28 -12 60 -36 51 -7 -3 -16 -1 -19 5 -4 5 -28 21 -55 34 -44 22 -61 25
-152 24 -57 -1 -119 -5 -138 -10z m120 -30 c0 -25 16 -25 23 0 3 12 14 19 32
19 16 0 38 -9 49 -19 11 -11 28 -19 38 -19 11 0 23 -11 28 -25 5 -14 15 -25
21 -25 8 0 8 4 -1 15 -6 8 -10 20 -7 27 4 8 6 7 6 -4 1 -10 8 -18 16 -18 14 0
13 -3 -1 -25 -22 -34 -13 -40 19 -15 14 11 30 20 37 20 22 0 4 -25 -28 -40
-17 -8 -32 -19 -32 -23 0 -5 5 -5 10 -2 19 11 40 -15 34 -41 -4 -15 -2 -24 5
-24 6 0 11 7 11 15 0 8 5 15 10 15 6 0 10 -9 10 -19 0 -11 3 -21 8 -24 4 -2 1
-2 -7 0 -8 2 -11 -2 -7 -12 3 -8 9 -22 12 -30 3 -8 1 -15 -5 -15 -6 0 -11 -7
-11 -15 0 -23 17 -18 23 7 7 27 12 23 21 -17 5 -22 4 -26 -4 -15 -8 12 -10 11
-10 -7 0 -33 10 -52 25 -47 18 7 8 -32 -14 -58 -20 -23 -31 -23 -31 0 0 9 -9
-2 -21 -25 -12 -24 -26 -43 -31 -43 -6 0 -8 -9 -5 -20 6 -23 -13 -32 -31 -13
-7 7 -19 13 -25 13 -7 0 -1 -9 13 -20 32 -24 20 -37 -14 -15 -14 10 -26 13
-26 8 0 -5 12 -16 26 -23 19 -11 30 -11 43 -3 15 10 21 7 31 -12 7 -14 17 -22
22 -19 12 8 5 -18 -10 -34 -7 -8 -10 -18 -7 -23 4 -5 1 -9 -6 -9 -7 0 -9 8 -6
21 4 16 2 19 -10 15 -11 -5 -14 -2 -9 10 5 13 3 14 -6 7 -7 -6 -21 -9 -31 -8
-9 2 -15 0 -12 -5 3 -5 0 -10 -7 -12 -7 -3 -9 -11 -3 -24 4 -10 7 -23 6 -28
-1 -5 4 -4 13 3 11 9 16 9 22 0 4 -8 3 -9 -4 -5 -7 4 -12 1 -12 -8 0 -8 -9
-18 -20 -21 -11 -3 -20 -11 -20 -16 0 -6 -5 -7 -11 -3 -8 4 -8 0 0 -15 7 -11
18 -21 26 -21 17 0 17 -2 9 -24 -3 -9 -12 -12 -22 -9 -11 5 -14 2 -9 -10 3 -9
2 -17 -3 -17 -6 0 -10 -4 -10 -9 0 -4 11 -6 25 -3 15 2 25 0 25 -7 0 -6 -9
-11 -20 -11 -11 0 -20 -5 -20 -11 0 -6 7 -8 16 -5 13 5 14 4 6 -7 -7 -8 -8
-18 -4 -22 4 -5 1 -5 -5 -1 -7 4 -13 2 -13 -4 0 -6 -5 -8 -10 -5 -6 3 -17 -1
-26 -9 -18 -19 -18 -19 23 -7 30 9 35 3 23 -29 -1 -3 -2 -8 -1 -12 0 -5 -6 -8
-14 -8 -8 0 -15 -4 -15 -9 0 -5 8 -7 18 -4 15 3 18 -3 19 -34 2 -30 0 -34 -7
-18 -8 19 -9 19 -9 -2 -1 -13 5 -23 13 -23 8 0 16 -7 19 -14 4 -10 1 -13 -8
-10 -7 3 -16 -3 -19 -14 -8 -25 -37 -37 -47 -20 -6 10 -12 8 -22 -6 -17 -23
-47 -30 -47 -10 0 8 -4 14 -10 14 -5 0 -10 -7 -10 -16 0 -10 -6 -14 -14 -11
-7 3 -19 0 -25 -6 -8 -8 -11 -3 -11 21 0 18 -4 32 -10 32 -5 0 -10 -9 -10 -20
0 -16 -7 -20 -34 -20 -19 0 -37 4 -41 9 -3 5 -17 6 -33 2 -15 -4 -31 -7 -37
-5 -5 1 -31 5 -58 9 -29 4 -45 10 -41 17 4 6 -1 8 -15 3 -16 -5 -20 -3 -15 9
5 12 2 15 -10 10 -9 -3 -13 -11 -9 -17 3 -6 1 -7 -6 -3 -6 4 -9 11 -6 16 3 4
-9 13 -26 19 -23 8 -30 15 -25 27 4 12 2 15 -9 10 -8 -3 -19 2 -24 12 -8 16 0
17 92 17 56 0 110 4 119 8 13 7 16 5 11 -12 -3 -12 -1 -21 5 -21 5 0 13 12 16
26 8 32 20 24 21 -14 0 -15 5 -27 10 -27 17 -1 41 -19 48 -37 3 -10 11 -18 17
-18 6 0 9 4 6 8 -7 12 6 26 37 40 15 7 25 17 22 22 -9 14 17 37 45 42 13 1 26
10 28 18 4 12 3 13 -10 2 -13 -10 -16 -9 -21 10 -7 27 2 45 14 27 7 -11 9 -10
9 4 0 9 5 17 10 17 6 0 10 5 10 11 0 5 -4 7 -10 4 -5 -3 -10 -2 -10 4 0 5 5
13 10 16 5 3 10 17 10 30 0 13 4 26 9 29 4 3 6 17 3 31 -2 14 0 31 6 38 6 7
11 28 12 47 0 19 2 65 4 103 2 51 0 69 -11 76 -16 8 -26 81 -11 81 5 0 4 9 -2
20 -6 11 -8 26 -4 33 5 8 2 7 -9 -2 -16 -12 -17 -11 -13 10 3 13 5 30 5 37 1
7 6 10 12 6 8 -4 7 0 -1 15 -6 12 -17 24 -25 27 -9 4 -12 18 -10 40 2 20 -3
40 -11 49 -8 7 -14 21 -14 29 0 9 -5 16 -11 16 -5 0 -7 5 -4 10 3 6 1 10 -5
10 -7 0 -10 7 -7 14 4 11 1 13 -10 9 -11 -4 -14 -3 -9 6 4 6 2 19 -6 28 -11
15 -10 16 10 11 15 -4 25 -2 29 8 3 9 20 14 44 14 21 0 39 5 39 11 0 5 5 7 12
3 7 -4 8 -3 4 5 -6 9 -11 9 -22 0 -7 -6 -25 -8 -38 -5 -18 4 -29 1 -39 -15 -9
-13 -17 -16 -22 -10 -10 17 -23 13 -30 -9 -9 -28 -27 -25 -19 4 9 38 -14 40
-30 2 -11 -27 -19 -33 -35 -29 -18 5 -21 1 -21 -26 0 -32 -14 -42 -24 -16 -3
8 -10 15 -16 15 -6 0 -8 -4 -5 -10 3 -5 -1 -10 -10 -10 -9 0 -14 4 -11 9 4 5
-20 8 -54 7 -32 -1 -55 1 -50 4 5 3 5 11 1 19 -6 10 -11 9 -24 -3 -17 -17 -32
-22 -22 -7 3 5 1 12 -5 16 -14 9 -12 26 3 24 6 -1 25 3 40 9 16 7 34 12 42 12
8 0 17 5 20 10 3 6 -2 10 -11 10 -10 0 -15 2 -12 5 5 6 51 10 182 19 38 3 72
9 75 14 7 11 24 17 56 18 18 2 25 -3 25 -17z m-100 -401 c0 -6 7 -20 17 -30 9
-10 11 -18 5 -18 -7 0 -9 -11 -6 -30 5 -22 2 -31 -10 -36 -9 -3 -13 -10 -10
-15 12 -21 -23 -7 -46 18 -14 15 -20 24 -13 20 8 -5 12 0 11 15 -2 42 2 56 18
72 18 19 34 21 34 4z m12 -231 c-6 -7 -10 -41 -9 -76 3 -68 -6 -96 -23 -71
-11 16 -14 119 -4 144 3 9 15 16 26 16 16 0 18 -3 10 -13z m295 -16 c-1 -12
-7 -17 -19 -13 -19 5 -23 14 -11 25 13 14 32 7 30 -12z m-17 -101 c0 -5 -9
-10 -20 -10 -11 0 -20 5 -20 10 0 6 9 10 20 10 11 0 20 -4 20 -10z"/>
<path d="M690 1170 c0 -13 5 -20 13 -17 6 2 12 10 12 17 0 7 -6 15 -12 18 -8
2 -13 -5 -13 -18z"/>
<path d="M827 1184 c-8 -8 3 -34 14 -34 5 0 9 9 9 20 0 19 -11 26 -23 14z"/>
<path d="M897 1154 c-7 -8 3 -34 13 -34 5 0 8 9 7 20 -1 20 -8 25 -20 14z"/>
<path d="M590 1139 c0 -6 -7 -8 -16 -5 -8 3 -12 2 -9 -3 9 -15 44 -9 38 6 -6
16 -13 17 -13 2z"/>
<path d="M1046 821 c-4 -6 -3 -18 2 -27 8 -15 10 -14 16 2 8 20 -8 42 -18 25z"/>
<path d="M891 721 c-9 -6 -3 -10 18 -13 36 -5 38 -3 13 11 -10 5 -24 6 -31 2z"/>
<path d="M1983 1085 c0 -33 2 -45 4 -27 2 18 2 45 0 60 -2 15 -4 0 -4 -33z"/>
<path d="M470 984 c0 -6 10 -19 21 -30 12 -10 32 -41 45 -69 14 -31 23 -42 23
-29 1 11 -4 25 -11 32 -7 7 -9 12 -5 12 4 0 -4 13 -18 28 -14 16 -32 37 -40
48 -8 10 -15 14 -15 8z"/>
<path d="M180 970 c-50 -12 -86 -58 -100 -125 -8 -36 -11 -132 -8 -268 3 -192
5 -216 24 -252 32 -61 61 -73 194 -80 139 -8 172 4 208 75 21 42 22 55 22 285
0 132 -5 256 -10 276 -5 19 -24 48 -41 65 -29 28 -33 29 -142 31 -62 1 -128
-2 -147 -7z m200 -40 c0 -5 -19 -10 -42 -10 -24 -1 -70 -3 -102 -5 -56 -5 -69
6 -21 18 39 9 165 7 165 -3z m37 -30 c-3 -11 -1 -18 3 -15 10 6 40 -5 40 -15
0 -12 -39 -19 -46 -9 -3 5 -16 6 -30 3 -15 -4 -24 -2 -24 6 0 7 6 10 14 7 8
-3 18 5 25 19 13 29 25 32 18 4z m-232 -41 c-5 -7 -11 -6 -21 2 -11 9 -12 15
-2 26 10 12 13 12 20 -1 5 -9 6 -21 3 -27z m75 22 c0 -5 -10 -13 -22 -17 -27
-8 -108 -88 -108 -106 0 -6 -3 -9 -6 -5 -11 11 38 78 79 108 42 30 57 35 57
20z m96 -26 c23 -9 33 -19 28 -26 -4 -7 -3 -9 3 -6 13 8 46 -27 36 -38 -5 -4
-3 -5 4 -1 8 4 20 -9 34 -36 31 -60 37 -168 14 -238 -21 -64 -83 -134 -132
-151 -72 -23 -151 17 -198 102 -27 49 -30 62 -30 149 0 78 4 102 22 136 27 51
83 106 101 99 7 -2 11 -1 7 4 -14 23 61 27 111 6z m98 -47 c13 -18 22 -37 19
-42 -4 -6 -9 -4 -11 4 -3 8 -8 17 -11 20 -3 3 -19 20 -36 39 -24 27 -26 32 -8
22 12 -6 33 -25 47 -43z m-254 -427 c23 -16 47 -32 53 -34 7 -2 9 -8 5 -12
-19 -20 -138 90 -138 126 0 8 9 0 20 -18 11 -18 38 -46 60 -62z m270 56 c0 -2
-11 -17 -25 -33 -24 -27 -24 -29 -6 -32 24 -4 31 -20 20 -49 -5 -15 -14 -21
-24 -17 -15 6 -19 16 -16 47 3 20 -15 23 -22 5 -4 -10 -6 -10 -6 -1 -1 6 7 18
17 25 11 7 24 23 31 36 10 18 31 31 31 19z m-290 -98 c0 -26 -16 -32 -34 -13
-19 19 -20 26 -4 42 15 15 38 -3 38 -29z m197 7 c-3 -8 3 -23 14 -34 10 -12
19 -23 19 -24 0 -8 -50 -11 -112 -7 -41 3 -43 6 -27 29 7 10 12 11 15 3 7 -16
59 0 59 18 0 8 7 17 15 21 22 10 23 9 17 -6z m-146 -38 c9 2 16 -4 16 -12 0
-14 -49 -17 -63 -4 -10 11 6 29 19 21 7 -4 19 -6 28 -5z"/>
<path d="M247 823 c-13 -13 -7 -21 13 -16 11 3 20 9 20 14 0 10 -24 12 -33 2z"/>
<path d="M235 781 c-17 -10 -36 -30 -44 -44 -12 -23 -12 -29 0 -44 13 -16 12
-17 -3 -5 -14 11 -17 9 -22 -15 -9 -39 -5 -113 6 -107 4 3 8 -2 8 -10 0 -9 4
-16 8 -16 4 0 12 -15 18 -32 5 -19 15 -32 22 -30 8 1 11 -2 8 -7 -4 -5 0 -12
6 -15 7 -4 3 -4 -9 -2 -31 6 -29 -1 7 -19 44 -23 94 -19 128 10 23 19 32 22
42 12 12 -10 12 -9 3 3 -8 10 -9 21 -3 30 6 8 10 20 10 25 0 6 -9 -4 -19 -21
-24 -40 -37 -48 -45 -28 -3 8 -2 13 3 10 13 -9 44 32 37 49 -3 9 -2 13 4 10 6
-3 10 -2 10 4 0 5 7 17 16 25 13 14 13 18 2 30 -20 20 -116 25 -123 7 -4 -11
-9 -10 -20 5 -14 18 -14 18 -15 -8 0 -15 -4 -30 -10 -33 -6 -4 -7 6 -4 24 4
20 1 37 -7 48 -12 15 -12 16 5 10 15 -6 16 -5 8 6 -7 8 -8 18 -1 27 9 13 10
13 8 0 -3 -19 11 -50 22 -50 4 0 28 21 53 47 43 46 74 53 48 12 -14 -22 -10
-32 30 -72 17 -17 18 -17 18 8 0 14 -4 25 -9 25 -5 0 -7 8 -4 19 11 42 -65
131 -112 131 -19 0 -22 -4 -19 -22 2 -13 2 -18 -2 -11 -4 9 -13 9 -32 2 -25
-8 -26 -8 -8 6 29 22 14 27 -19 6z m132 -19 c9 -15 8 -19 -2 -19 -8 0 -16 9
-18 19 -3 10 -2 18 2 18 3 0 11 -8 18 -18z m-29 -59 c-3 -27 -38 -43 -38 -17
0 8 7 11 18 8 14 -5 14 -4 2 4 -8 6 -27 8 -42 5 -21 -4 -28 -2 -28 11 0 12 10
16 46 16 43 0 45 -1 42 -27z m-94 -21 c7 -11 -6 -27 -28 -35 -15 -6 -18 -14
-13 -49 4 -27 2 -37 -4 -27 -14 22 -11 58 8 90 18 29 28 35 37 21z m6 -72 c0
-13 -7 -20 -18 -20 -11 0 -18 8 -19 20 -1 14 4 20 18 20 12 0 19 -7 19 -20z
m128 -28 c2 -7 -2 -10 -12 -6 -9 3 -16 11 -16 16 0 13 23 5 28 -10z m-31 -61
c-18 -42 -26 -48 -53 -43 -32 6 -54 47 -35 65 7 6 12 8 11 2 -4 -21 0 -45 8
-45 5 0 7 15 6 32 -3 46 2 50 41 31 31 -15 32 -18 22 -42z"/>
<path d="M310 526 c0 -14 4 -27 8 -30 5 -3 9 8 9 24 0 17 -4 30 -9 30 -4 0 -8
-11 -8 -24z"/>
<path d="M349 663 l-34 -38 38 34 c34 33 42 41 34 41 -2 0 -19 -17 -38 -37z"/>
<path d="M242 408 c5 -15 28 -23 28 -10 0 5 -7 13 -16 16 -10 4 -14 1 -12 -6z"/>
<path d="M553 720 c0 -36 2 -54 4 -40 3 14 10 28 16 32 8 5 8 10 0 20 -6 7
-13 22 -16 33 -2 11 -5 -9 -4 -45z"/>
<path d="M1060 682 c0 -11 37 -32 44 -25 8 9 -14 33 -30 33 -8 0 -14 -3 -14
-8z"/>
<path d="M1405 657 c-11 -9 -14 -16 -7 -21 15 -9 42 4 42 20 0 18 -11 18 -35
1z"/>
<path d="M1182 608 c-16 -16 -15 -38 1 -38 14 0 39 35 30 44 -9 9 -18 7 -31
-6z"/>
<path d="M1280 603 c1 -14 30 -47 36 -41 10 11 -7 48 -22 48 -8 0 -14 -3 -14
-7z"/>
<path d="M1125 570 c-6 -11 42 -26 52 -16 4 3 -1 6 -10 6 -9 0 -17 5 -17 10 0
13 -17 13 -25 0z"/>
<path d="M1379 568 c-5 -17 -4 -107 1 -101 12 13 21 103 10 103 -6 0 -10 -1
-11 -2z"/>
<path d="M1319 549 c-10 -6 -7 -9 14 -9 29 0 35 5 14 13 -8 3 -20 1 -28 -4z"/>
<path d="M1099 549 c0 -2 -2 -20 -4 -39 l-4 -35 10 34 c6 18 8 36 5 39 -3 3
-6 3 -7 1z"/>
<path d="M1113 485 c0 -8 4 -12 9 -9 15 9 78 -20 84 -39 8 -25 15 -16 7 11 -9
37 -100 71 -100 37z"/>
<path d="M1010 461 c-15 -29 -12 -57 7 -72 15 -13 15 -12 5 7 -6 12 -8 24 -5
28 7 7 14 56 8 56 -3 0 -9 -9 -15 -19z"/>
<path d="M1266 461 c-10 -11 -16 -26 -14 -33 3 -8 9 -5 17 10 9 17 20 22 51
22 22 0 40 5 40 10 0 19 -76 11 -94 -9z"/>
<path d="M1414 453 c1 -14 -6 -18 -26 -16 -16 1 -28 -2 -28 -8 0 -5 -8 -9 -17
-10 -14 0 -15 -2 -3 -6 8 -4 21 -13 29 -21 9 -9 25 -12 44 -8 21 4 34 1 44
-11 13 -16 14 -15 9 16 -10 56 -56 112 -52 64z m22 -30 c-3 -21 -38 -29 -63
-14 -16 9 -15 10 7 11 14 0 32 5 40 10 19 13 19 13 16 -7z"/>
<path d="M1036 435 c-9 -14 -15 -25 -14 -26 43 -13 80 10 58 36 -17 21 -25 19
-44 -10z m35 -2 c10 -12 11 -15 1 -9 -7 4 -20 2 -29 -6 -15 -12 -15 -11 -2 10
17 26 13 26 30 5z"/>
<path d="M1090 453 c1 -19 18 -33 33 -27 9 3 14 11 11 16 -4 6 -10 5 -15 -3
-7 -11 -9 -10 -9 4 0 9 -4 17 -10 17 -5 0 -10 -3 -10 -7z"/>
<path d="M535 335 c-10 -25 -21 -45 -24 -45 -3 0 -15 -13 -25 -28 l-19 -27 27
25 c27 24 73 106 64 115 -2 3 -12 -16 -23 -40z"/>
<path d="M1093 326 c-3 -4 17 -7 45 -5 27 2 48 1 45 -3 -2 -5 13 -8 35 -8 22
0 60 -3 86 -6 37 -5 46 -4 46 8 0 11 -7 14 -25 10 -15 -2 -25 0 -25 7 0 14
-198 11 -207 -3z"/>
<path d="M1400 314 l-45 -12 40 -1 c22 0 46 3 54 8 23 15 -2 18 -49 5z"/>
<path d="M1498 214 c-2 -25 -1 -50 3 -55 3 -6 7 15 8 45 2 67 -6 74 -11 10z"/>
<path d="M1012 70 c5 -17 38 -23 210 -40 110 -11 188 -7 188 9 0 4 -25 6 -55
3 -73 -6 -316 17 -334 31 -11 10 -13 9 -9 -3z"/>
</g>
</svg>
